<svg xmlns="http://www.w3.org/2000/svg" version="1.1" xmlns:xlink="http://www.w3.org/1999/xlink" xmlns:svgjs="http://svgjs.dev/svgjs" viewBox="0 0 800 800"><defs><filter id="llleaves-blur-2" x="-100%" y="-100%" width="400%" height="400%"><feGaussianBlur in="SourceGraphic" stdDeviation="2"></feGaussianBlur></filter><filter id="llleaves-blur-3" x="-100%" y="-100%" width="400%" height="400%"><feGaussianBlur in="SourceGraphic" stdDeviation="4"></feGaussianBlur></filter><filter id="llleaves-blur-4" x="-100%" y="-100%" width="400%" height="400%"><feGaussianBlur in="SourceGraphic" stdDeviation="12"></feGaussianBlur></filter></defs><g fill="hsl(265, 55%, 20%)"><path d="M333 719H383C411 719 433 741 433 769H383C355 769 333 747 333 719Z " transform="matrix(-0.38243979300909364,-0.13168458115381487,0.13168458115381487,-0.38243979300909364,431.5011123440446,1078.970400580677)" opacity="0.62"></path><path d="M553 366H603C631 366 653 388 653 416H603C575 416 553 394 553 366Z " transform="matrix(-0.37595039843378714,-0.1673839016358952,0.1673839016358952,-0.37595039843378714,764.2509847159386,638.9290984740555)" opacity="0.63"></path><path d="M529 719H579C607 719 629 741 629 769H579C551 769 529 747 529 719Z " transform="matrix(-0.359660076459053,-0.22474055888462752,0.22474055888462752,-0.359660076459053,620.0362084596288,1141.7118804797346)" opacity="0.65"></path><path d="M623 734H673C701 734 723 756 723 784H673C645 784 623 762 623 734Z " transform="matrix(-0.3749808994650524,4.592191582712719e-17,-4.592191582712719e-17,-0.3749808994650524,925.3621453399802,1043.610502693975)" filter="url(#llleaves-blur-2)" opacity="0.57"></path><path d="M-4 257H46C74 257 96 279 96 307H46C18 307 -4 285 -4 257Z " transform="matrix(-0.03536826656603624,-0.5057897762393051,0.5057897762393051,-0.03536826656603624,-95.00577663744636,315.24018087863027)" opacity="0.78"></path><path d="M237 723H287C315 723 337 745 337 773H287C259 773 237 751 237 723Z " transform="matrix(-0.374340828997758,4.5843529802227106e-17,-4.5843529802227106e-17,-0.374340828997758,394.4358179223566,1028.006940090323)" filter="url(#llleaves-blur-2)" opacity="0.57"></path><path d="M503 49H553C581 49 603 71 603 99H553C525 99 503 77 503 49Z " transform="matrix(-0.2063953694776082,0.2213319361217705,-0.2213319361217705,-0.2063953694776082,683.5152025941284,-33.12330333399608)" filter="url(#llleaves-blur-2)" opacity="0.46"></path><path d="M589 144H639C667 144 689 166 689 194H639C611 194 589 172 589 144Z " transform="matrix(-0.3757432424101872,4.6015275911888374e-17,-4.6015275911888374e-17,-0.3757432424101872,879.0999319001096,232.50060796732157)" filter="url(#llleaves-blur-2)" opacity="0.58"></path><path d="M708 712H758C786 712 808 734 808 762H758C730 762 708 740 708 712Z " transform="matrix(-0.27227894724768315,0.17682001581046977,-0.17682001581046977,-0.27227894724768315,1094.70379366606,803.6400121372064)" filter="url(#llleaves-blur-2)" opacity="0.50"></path><path d="M614 439H664C692 439 714 461 714 489H664C636 489 614 467 614 439Z " transform="matrix(-0.38220577382635157,-0.04692896811382355,0.04692896811382355,-0.38220577382635157,896.0095926158833,672.504313883006)" filter="url(#llleaves-blur-2)" opacity="0.59"></path><path d="M696 246H746C774 246 796 268 796 296H746C718 296 696 274 696 246Z " transform="matrix(-0.29764203361978586,0.15165619096855731,-0.15165619096855731,-0.29764203361978586,1009.1397848328393,238.5254726484182)" filter="url(#llleaves-blur-2)" opacity="0.51"></path><path d="M75 653H125C153 653 175 675 175 703H125C97 703 75 681 75 653Z " transform="matrix(-0.3445839813325838,-0.25966265473371397,0.25966265473371397,-0.3445839813325838,-7.978282242885086,944.0857711852061)" opacity="0.66"></path><path d="M1 720H51C79 720 101 742 101 770H51C23 770 1 748 1 720Z " transform="matrix(-0.11883379624107425,-0.476616324223384,0.476616324223384,-0.11883379624107425,-298.0186379381263,857.8386107349929)" opacity="0.75"></path><path d="M121 570H171C199 570 221 592 221 620H171C143 620 121 598 121 570Z " transform="matrix(-0.3836680896470674,-0.10280355478252312,0.10280355478252312,-0.3836680896470674,175.43912823404727,840.8619212078165)" filter="url(#llleaves-blur-2)" opacity="0.61"></path><path d="M502 607H552C580 607 602 629 602 657H552C524 657 502 635 502 607Z " transform="matrix(-0.35097835422004175,-0.24575768937331077,0.24575768937331077,-0.35097835422004175,590.4211918455306,989.4765644011338)" opacity="0.66"></path><path d="M437 725H487C515 725 537 747 537 775H487C459 775 437 753 437 725Z " transform="matrix(-0.34505861447235076,-0.2600203164584983,0.2600203164584983,-0.34505861447235076,460.028307904161,1135.4238549695515)" opacity="0.66"></path></g><g fill="none" stroke-width="3" stroke="hsl(265, 55%, 20%)"><path d="M298 592H348C376 592 398 614 398 642H348C320 642 298 620 298 592Z " transform="matrix(-0.38270776221856184,-0.05378606834928107,0.05378606834928107,-0.38270776221856184,447.9962970805531,871.8482410744024)" filter="url(#llleaves-blur-2)" opacity="0.59"></path><path d="M396 632H446C474 632 496 654 496 682H446C418 682 396 660 396 632Z " transform="matrix(-0.3614534132913176,-0.21718312165984568,0.21718312165984568,-0.3614534132913176,464.518911397409,991.3385647926868)" opacity="0.65"></path><path d="M283 269H333C361 269 383 291 383 319H333C305 319 283 297 283 269Z " transform="matrix(-0.3805222777087666,-0.026608709753656985,0.026608709753656985,-0.3805222777087666,451.89095780944405,414.7342499943451)" filter="url(#llleaves-blur-2)" opacity="0.58"></path><path d="M328 472H378C406 472 428 494 428 522H378C350 522 328 500 328 472Z " transform="matrix(-0.38466349201569044,-0.1030702720433397,0.1030702720433397,-0.38466349201569044,472.17687477639123,727.1383183641807)" filter="url(#llleaves-blur-2)" opacity="0.61"></path><path d="M380 230H430C458 230 480 252 480 280H430C402 280 380 258 380 230Z " transform="matrix(-0.3710480808877043,-0.18905844019835244,0.18905844019835244,-0.3710480808877043,541.340772531133,430.91238991165613)" opacity="0.64"></path><path d="M414 20H464C492 20 514 42 514 70H464C436 70 414 48 414 20Z " transform="matrix(-0.0916667692403916,0.2518523786023335,-0.2518523786023335,-0.0916667692403916,517.8667379646467,-67.7344990556651)" filter="url(#llleaves-blur-3)" opacity="0.41"></path><path d="M173 118H223C251 118 273 140 273 168H223C195 168 173 146 173 118Z " transform="matrix(-0.27693375354001,0.17304741509636345,-0.17304741509636345,-0.27693375354001,309.5020073982022,144.01195318973237)" filter="url(#llleaves-blur-2)" opacity="0.50"></path><path d="M93 300H143C171 300 193 322 193 350H143C115 350 93 328 93 300Z " transform="matrix(-0.3661919603351091,-0.20298351818298427,0.20298351818298427,-0.3661919603351091,129.39580691845072,473.0390302090772)" opacity="0.64"></path><path d="M316 34H366C394 34 416 56 416 84H366C338 84 316 62 316 34Z " transform="matrix(-0.025854287689548037,0.24598711578268073,-0.24598711578268073,-0.025854287689548037,389.97590912555273,-29.505881402777817)" filter="url(#llleaves-blur-3)" opacity="0.38"></path><path d="M192 320H242C270 320 292 342 292 370H242C214 370 192 348 192 320Z " transform="matrix(-0.3739047697993224,0.006526532033817395,-0.006526532033817395,-0.3739047697993224,334.73660784310306,472.41772482858244)" filter="url(#llleaves-blur-2)" opacity="0.57"></path><path d="M85 194H135C163 194 185 216 185 244H135C107 244 85 222 85 194Z " transform="matrix(-0.3661919603351091,-0.20298351818298427,0.20298351818298427,-0.3661919603351091,139.98252416316618,326.59881426809176)" opacity="0.64"></path><path d="M514 489H564C592 489 614 511 614 539H564C536 539 514 517 514 489Z " transform="matrix(-0.35097835422004175,-0.24575768937331077,0.24575768937331077,-0.35097835422004175,635.6323394422218,833.0102108756487)" opacity="0.66"></path><path d="M282 148H332C360 148 382 170 382 198H332C304 198 282 176 282 148Z " transform="matrix(-0.3571200921105156,0.0565622659175709,-0.0565622659175709,-0.3571200921105156,460.3491425844309,216.00310365048563)" filter="url(#llleaves-blur-2)" opacity="0.55"></path><path d="M187 219H237C265 219 287 241 287 269H237C209 269 187 247 187 219Z " transform="matrix(-0.3739047697993224,0.006526532033817395,-0.006526532033817395,-0.3739047697993224,327.20790425869086,333.68597573901997)" filter="url(#llleaves-blur-2)" opacity="0.57"></path><path d="M587 262H637C665 262 687 284 687 312H637C609 312 587 290 587 262Z " transform="matrix(-0.3845572086806655,-0.08878202715240092,0.08878202715240092,-0.3845572086806655,856.4825001368448,453.92207018743045)" filter="url(#llleaves-blur-2)" opacity="0.61"></path></g></svg>